<?xml version="1.0" encoding="UTF-8"?><svg id="a" xmlns="http://www.w3.org/2000/svg" xmlns:xlink="http://www.w3.org/1999/xlink" viewBox="0 0 483 110"><defs><style>.k{fill:#bd9841;}.l{fill:url(#f);}.m{fill:url(#g);}.n{fill:url(#b);}.o{clip-path:url(#c);}.p{fill:url(#i);}.q{fill:url(#h);}.r{fill:url(#d);}.s{fill:url(#e);}.t{fill:none;}.u{fill:url(#j);}</style><linearGradient id="b" x1="6.64" y1="79.35" x2="235.76" y2="79.35" gradientTransform="matrix(1, 0, 0, 1, 0, 0)" gradientUnits="userSpaceOnUse"><stop offset="0" stop-color="#bd9841"/><stop offset=".46" stop-color="#e6dc9d"/><stop offset=".52" stop-color="#e1d492"/><stop offset=".61" stop-color="#d5c077"/><stop offset=".74" stop-color="#c19f4a"/><stop offset=".76" stop-color="#bd9841"/></linearGradient><clipPath id="c"><path class="t" d="M24.96,71.19s43.4-21.03,92.74-6.47c49.34,14.56,91.39,16.44,114.58-2.16L171.08-3.48,101.52-20.2,10.13,18.35l14.83,52.84Z"/></clipPath><linearGradient id="d" x1="97.5" y1="42.56" x2="197.97" y2="42.56" xlink:href="#b"/><linearGradient id="e" x1="78.24" y1="17.89" x2="98.12" y2="17.89" xlink:href="#b"/><linearGradient id="f" x1="34.51" y1="47.28" x2="205.18" y2="47.28" xlink:href="#b"/><linearGradient id="g" x1="136.46" y1="47.71" x2="143.13" y2="47.71" gradientTransform="matrix(1, 0, 0, 1, 0, 0)" gradientUnits="userSpaceOnUse"><stop offset="0" stop-color="#bd9841"/><stop offset=".81" stop-color="#e6dc9d"/></linearGradient><linearGradient id="h" x1="145.4" y1="47.99" x2="152.08" y2="47.99" xlink:href="#g"/><linearGradient id="i" y1="57.36" y2="57.36" xlink:href="#g"/><linearGradient id="j" x1="145.4" y1="57.65" x2="152.08" y2="57.65" xlink:href="#g"/></defs><g><path class="k" d="M265.71,38.65c5.76,.96,10.45,3.72,10.45,9.55,0,4.08-2.28,7.33-5.82,9.25-3.12,1.74-6.18,2.34-10.39,2.34h-14.77v-1.68c5.1-.48,5.4-1.02,5.4-5.76V28.27c0-4.98-.54-5.4-5.4-5.82v-1.68h15.73c4.5,0,7.33,.78,9.25,2.1,2.1,1.44,3.54,3.66,3.54,6.73,0,5.64-4.62,8.23-7.99,9.07Zm-6.9-.72c6.6,0,9.31-2.64,9.31-7.57,0-4.2-2.58-7.45-8.35-7.45-1.68,0-2.76,.18-3.36,.6-.48,.36-.66,1.02-.66,2.94v11.47h3.06Zm-3.06,14.29c0,4.32,1.02,5.4,5.28,5.4,4.68,0,9.25-2.52,9.25-8.83s-4.32-8.77-11.65-8.77h-2.88v12.19Z"/><path class="k" d="M312.25,50.24c-.36,1.56-1.98,7.75-2.58,9.55h-29.18v-1.68c5.58-.42,6-.96,6-5.88V28.51c0-5.34-.66-5.64-5.16-6.06v-1.68h18.37c5.64,0,7.99-.06,8.71-.12,.06,1.5,.3,6,.54,9.19l-1.8,.3c-.54-2.04-1.14-3.3-1.8-4.56-.96-1.98-2.34-2.4-5.94-2.4h-5.7c-1.86,0-1.98,.18-1.98,1.92v13.27h6.66c4.5,0,4.8-.9,5.52-4.98h1.86v12.37h-1.86c-.78-4.32-1.26-4.92-5.58-4.92h-6.6v11.95c0,4.2,1.32,4.56,4.32,4.62h5.58c3.66,0,4.26-.54,5.58-2.1,1.14-1.26,2.4-3.72,3.24-5.52l1.8,.48Z"/><path class="k" d="M352.06,60.27c-.78,0-1.44-.06-2.22-.12-4.38-.3-6.72-1.44-9.37-5.16-2.22-3.06-4.38-6.84-6.3-9.91-1.2-1.92-1.98-2.28-5.04-2.28h-2.1v9.43c0,5.1,.66,5.4,5.46,5.88v1.68h-16.03v-1.68c4.98-.54,5.4-.78,5.4-5.88V28.27c0-5.1-.66-5.28-5.4-5.82v-1.68h15.31c4.38,0,7.33,.54,9.61,2.04,2.46,1.56,4.08,4.26,4.08,7.93,0,5.16-3.3,8.41-7.75,10.33,1.08,1.86,3.66,5.88,5.46,8.59,2.22,3.18,3.36,4.68,4.74,6.18,1.62,1.74,3,2.4,4.38,2.76l-.24,1.68Zm-22.16-19.51c3.12,0,5.1-.48,6.61-1.74,2.34-1.74,3.3-4.14,3.3-7.39,0-6.42-4.26-8.77-8.89-8.77-1.74,0-2.76,.24-3.18,.6-.54,.42-.72,1.02-.72,2.58v14.71h2.88Z"/><path class="k" d="M393.25,43.4c-3.72,.48-3.96,.84-3.96,4.38v5.04c0,2.1,.06,4.08,.36,5.7-3.72,.84-8.59,2.16-13.63,2.16-13.63,0-21.92-8.47-21.92-20.53,0-12.67,10.33-20.23,22.34-20.23,6.12,0,10.63,1.2,12.49,1.5,.12,2.22,.42,5.88,.9,9.67l-1.8,.36c-1.44-5.1-3.18-7.27-6.96-8.53-1.38-.48-3.84-.78-5.58-.78-9.19,0-15.13,6.3-15.13,17.29,0,9.55,4.92,19.03,16.57,19.03,2.04,0,3.9-.42,5.1-1.02,1.26-.72,2.04-1.38,2.04-3.84v-4.92c0-4.38-.48-4.86-6.24-5.28v-1.74h15.43v1.74Z"/><path class="k" d="M429.1,50.24c-.36,1.56-1.98,7.75-2.58,9.55h-29.18v-1.68c5.58-.42,6-.96,6-5.88V28.51c0-5.34-.66-5.64-5.16-6.06v-1.68h18.37c5.64,0,7.99-.06,8.71-.12,.06,1.5,.3,6,.54,9.19l-1.8,.3c-.54-2.04-1.14-3.3-1.8-4.56-.96-1.98-2.34-2.4-5.94-2.4h-5.7c-1.86,0-1.98,.18-1.98,1.92v13.27h6.66c4.5,0,4.8-.9,5.52-4.98h1.86v12.37h-1.86c-.78-4.32-1.26-4.92-5.58-4.92h-6.6v11.95c0,4.2,1.32,4.56,4.32,4.62h5.58c3.66,0,4.26-.54,5.58-2.1,1.14-1.26,2.4-3.72,3.24-5.52l1.8,.48Z"/><path class="k" d="M474.79,22.44c-3.84,.42-5.1,1.02-5.28,3.78-.06,1.92-.18,4.44-.18,10.03v24.08h-2.28l-25.7-31.4v15.01c0,5.4,.18,8.11,.3,9.85,.12,3.06,1.62,3.96,5.94,4.32v1.68h-14.59v-1.68c3.72-.3,5.16-1.2,5.4-4.14,.18-1.92,.3-4.62,.3-10.09v-15.31c0-1.68-.12-2.64-1.2-3.96-1.14-1.5-2.4-1.86-5.34-2.16v-1.68h9.01l25.46,30.2v-14.71c0-5.58-.12-8.17-.3-9.97-.18-2.7-1.56-3.54-6.36-3.84v-1.68h14.83v1.68Z"/><path class="k" d="M250.67,81.47c2.46,.41,4.45,1.59,4.45,4.07,0,1.74-.97,3.12-2.48,3.94-1.33,.74-2.63,1-4.42,1h-6.29v-.72c2.17-.21,2.3-.43,2.3-2.46v-10.25c0-2.12-.23-2.3-2.3-2.48v-.72h6.7c1.92,0,3.12,.33,3.94,.9,.9,.61,1.51,1.56,1.51,2.86,0,2.4-1.97,3.5-3.4,3.86Zm-2.94-.31c2.81,0,3.96-1.12,3.96-3.22,0-1.79-1.1-3.17-3.55-3.17-.72,0-1.18,.08-1.43,.26-.21,.15-.28,.43-.28,1.25v4.88h1.3Zm-1.3,6.09c0,1.84,.44,2.3,2.25,2.3,2,0,3.94-1.07,3.94-3.76s-1.84-3.73-4.96-3.73h-1.23v5.19Z"/><path class="k" d="M271.51,74.56c-1.79,.21-2.1,.49-3.12,2.12-1.15,1.87-2.1,3.63-3.35,5.91-.31,.59-.38,.9-.38,1.51v3.15c0,2.12,.23,2.28,2.61,2.51v.72h-7.34v-.72c2.33-.31,2.51-.36,2.51-2.51v-3.3c0-.51-.1-.74-.51-1.48-.89-1.66-1.76-3.27-3.15-5.68-1-1.74-1.25-2.05-2.99-2.23v-.72h6.29v.72c-1.84,.26-1.74,.59-1.28,1.46,1.07,1.97,2.28,4.27,3.35,6.19,.92-1.71,2.38-4.5,3.09-5.91,.59-1.28,.51-1.53-1.51-1.74v-.72h5.78v.72Z"/><path class="k" d="M288.67,83.49c-1.59,.2-1.69,.36-1.69,1.87v2.15c0,.9,.03,1.74,.15,2.43-1.59,.36-3.66,.92-5.81,.92-5.81,0-9.33-3.61-9.33-8.75,0-5.4,4.4-8.62,9.51-8.62,2.61,0,4.53,.51,5.32,.64,.05,.95,.18,2.51,.38,4.12l-.77,.15c-.61-2.17-1.36-3.09-2.97-3.63-.59-.21-1.64-.33-2.38-.33-3.91,0-6.44,2.69-6.44,7.37,0,4.07,2.1,8.11,7.06,8.11,.87,0,1.66-.18,2.17-.43,.54-.31,.87-.59,.87-1.64v-2.1c0-1.87-.2-2.07-2.66-2.25v-.74h6.57v.74Z"/><path class="k" d="M308.02,83.49c-1.59,.2-1.69,.36-1.69,1.87v2.15c0,.9,.03,1.74,.15,2.43-1.59,.36-3.66,.92-5.81,.92-5.81,0-9.33-3.61-9.33-8.75,0-5.4,4.4-8.62,9.51-8.62,2.61,0,4.53,.51,5.32,.64,.05,.95,.18,2.51,.38,4.12l-.77,.15c-.61-2.17-1.36-3.09-2.97-3.63-.59-.21-1.64-.33-2.38-.33-3.91,0-6.44,2.69-6.44,7.37,0,4.07,2.1,8.11,7.06,8.11,.87,0,1.66-.18,2.17-.43,.54-.31,.87-.59,.87-1.64v-2.1c0-1.87-.2-2.07-2.66-2.25v-.74h6.57v.74Z"/><path class="k" d="M323.18,77.86c-.23-.82-.54-1.66-.82-2.12-.41-.69-.67-.87-2.07-.87h-2.56v12.45c0,2,.21,2.28,2.63,2.43v.72h-7.44v-.72c2.38-.15,2.58-.41,2.58-2.43v-12.45h-2.33c-1.41,0-1.82,.15-2.25,.92-.31,.51-.51,1.13-.84,2.07h-.77c.15-1.56,.31-3.17,.38-4.6h.59c.38,.61,.67,.59,1.38,.59h10.13c.72,0,.92-.1,1.3-.59h.61c0,1.2,.1,3.04,.23,4.53l-.77,.08Z"/><path class="k" d="M332.92,74.56c-2,.23-2.2,.38-2.2,2.53v9.46c0,3.38-.54,5.14-2.25,6.67-.84,.77-1.69,1.18-2.38,1.48l-.41-.77c1.46-.72,2.28-1.89,2.56-3.38,.23-1.23,.26-2.71,.26-4.86v-8.62c0-2.15-.23-2.33-2.33-2.53v-.72h6.75v.72Z"/><path class="k" d="M348.26,86.4c-.15,.67-.84,3.3-1.1,4.07h-12.43v-.72c2.38-.18,2.56-.41,2.56-2.51v-10.1c0-2.28-.28-2.4-2.2-2.58v-.72h7.83c2.4,0,3.4-.03,3.71-.05,.03,.64,.13,2.56,.23,3.91l-.77,.13c-.23-.87-.49-1.41-.77-1.94-.41-.84-1-1.02-2.53-1.02h-2.43c-.79,0-.84,.08-.84,.82v5.65h2.84c1.92,0,2.05-.38,2.35-2.12h.79v5.27h-.79c-.33-1.84-.54-2.1-2.38-2.1h-2.81v5.09c0,1.79,.56,1.94,1.84,1.97h2.38c1.56,0,1.82-.23,2.38-.89,.49-.54,1.02-1.59,1.38-2.35l.77,.2Z"/><path class="k" d="M367.72,74.56c-1.64,.18-2.17,.44-2.25,1.61-.03,.82-.08,1.89-.08,4.27v10.26h-.97l-10.95-13.38v6.39c0,2.3,.08,3.45,.13,4.19,.05,1.3,.69,1.69,2.53,1.84v.72h-6.21v-.72c1.59-.13,2.2-.51,2.3-1.76,.08-.82,.13-1.97,.13-4.3v-6.52c0-.72-.05-1.12-.51-1.69-.49-.64-1.02-.79-2.28-.92v-.72h3.84l10.84,12.86v-6.27c0-2.38-.05-3.48-.13-4.25-.08-1.15-.67-1.51-2.71-1.64v-.72h6.32v.72Z"/><path class="k" d="M383.03,86.4c-.15,.67-.84,3.3-1.1,4.07h-12.43v-.72c2.38-.18,2.56-.41,2.56-2.51v-10.1c0-2.28-.28-2.4-2.2-2.58v-.72h7.83c2.4,0,3.4-.03,3.71-.05,.03,.64,.13,2.56,.23,3.91l-.77,.13c-.23-.87-.49-1.41-.77-1.94-.41-.84-1-1.02-2.53-1.02h-2.43c-.79,0-.84,.08-.84,.82v5.65h2.84c1.92,0,2.05-.38,2.35-2.12h.79v5.27h-.79c-.33-1.84-.54-2.1-2.38-2.1h-2.81v5.09c0,1.79,.56,1.94,1.84,1.97h2.38c1.56,0,1.82-.23,2.38-.89,.49-.54,1.02-1.59,1.38-2.35l.77,.2Z"/><path class="k" d="M393.69,77.73c-.43-1.69-1.15-3.35-3.55-3.35-1.99,0-2.68,1.46-2.68,2.79,0,1.76,1.12,2.66,3.25,3.76,3.07,1.59,4.4,2.76,4.4,5.19,0,2.69-2.33,4.73-5.63,4.73-1.54,0-2.86-.43-3.91-.84-.21-.72-.51-2.46-.69-3.84l.79-.2c.51,1.71,1.64,3.94,4.3,3.94,1.84,0,2.97-1.28,2.97-2.94,0-1.97-1.05-2.76-3.3-3.99-2.69-1.46-4.19-2.69-4.19-5.06s1.89-4.42,5.27-4.42c1.43,0,2.84,.38,3.38,.49,.1,.92,.21,1.94,.41,3.61l-.79,.15Z"/><path class="k" d="M410.72,77.86c-.23-.82-.54-1.66-.82-2.12-.41-.69-.67-.87-2.07-.87h-2.56v12.45c0,2,.21,2.28,2.63,2.43v.72h-7.44v-.72c2.38-.15,2.58-.41,2.58-2.43v-12.45h-2.33c-1.41,0-1.82,.15-2.25,.92-.31,.51-.51,1.13-.84,2.07h-.77c.15-1.56,.31-3.17,.38-4.6h.59c.38,.61,.67,.59,1.38,.59h10.13c.72,0,.92-.1,1.3-.59h.61c0,1.2,.1,3.04,.23,4.53l-.77,.08Z"/><path class="k" d="M426.86,86.4c-.15,.67-.84,3.3-1.1,4.07h-12.43v-.72c2.38-.18,2.56-.41,2.56-2.51v-10.1c0-2.28-.28-2.4-2.2-2.58v-.72h7.83c2.4,0,3.4-.03,3.71-.05,.03,.64,.13,2.56,.23,3.91l-.77,.13c-.23-.87-.49-1.41-.77-1.94-.41-.84-1-1.02-2.53-1.02h-2.43c-.79,0-.84,.08-.84,.82v5.65h2.84c1.92,0,2.05-.38,2.35-2.12h.79v5.27h-.79c-.33-1.84-.54-2.1-2.38-2.1h-2.81v5.09c0,1.79,.56,1.94,1.84,1.97h2.38c1.56,0,1.82-.23,2.38-.89,.49-.54,1.02-1.59,1.38-2.35l.77,.2Z"/><path class="k" d="M443.81,90.67c-.33,0-.61-.03-.95-.05-1.87-.13-2.86-.61-3.99-2.2-.95-1.3-1.87-2.92-2.68-4.22-.51-.82-.84-.97-2.15-.97h-.9v4.01c0,2.17,.28,2.3,2.33,2.51v.72h-6.83v-.72c2.12-.23,2.3-.33,2.3-2.51v-10.2c0-2.17-.28-2.25-2.3-2.48v-.72h6.52c1.87,0,3.12,.23,4.09,.87,1.05,.67,1.74,1.82,1.74,3.38,0,2.2-1.41,3.58-3.3,4.4,.46,.79,1.56,2.51,2.33,3.66,.95,1.36,1.43,2,2.02,2.63,.69,.74,1.28,1.02,1.87,1.18l-.1,.72Zm-9.44-8.31c1.33,0,2.17-.21,2.81-.74,1-.74,1.41-1.76,1.41-3.15,0-2.74-1.82-3.73-3.78-3.73-.74,0-1.18,.1-1.36,.26-.23,.18-.31,.43-.31,1.1v6.27h1.23Z"/><path class="k" d="M458.89,90.47v-.72c1.66-.21,1.87-.46,1.51-1.43-.33-1-.84-2.28-1.38-3.89h-5.52c-.41,1.15-.79,2.15-1.15,3.2-.56,1.66-.21,1.87,1.89,2.12v.72h-5.91v-.72c1.61-.21,2.02-.38,2.92-2.69l5.29-13.43,.82-.15c1.61,4.37,3.38,9.21,4.99,13.63,.82,2.23,1.05,2.43,2.86,2.63v.72h-6.32Zm-2.56-13.63c-.82,2.2-1.69,4.53-2.46,6.55h4.78l-2.33-6.55Z"/><path class="k" d="M475.51,77.73c-.44-1.69-1.15-3.35-3.56-3.35-1.99,0-2.68,1.46-2.68,2.79,0,1.76,1.12,2.66,3.25,3.76,3.07,1.59,4.4,2.76,4.4,5.19,0,2.69-2.33,4.73-5.63,4.73-1.54,0-2.86-.43-3.91-.84-.21-.72-.51-2.46-.69-3.84l.79-.2c.51,1.71,1.64,3.94,4.3,3.94,1.84,0,2.97-1.28,2.97-2.94,0-1.97-1.05-2.76-3.3-3.99-2.69-1.46-4.19-2.69-4.19-5.06s1.89-4.42,5.27-4.42c1.43,0,2.84,.38,3.38,.49,.1,.92,.21,1.94,.41,3.61l-.79,.15Z"/></g><g><path class="n" d="M6.64,92.24s44.33-34.14,95.24-24.26c50.92,9.88,91.35,25.76,133.88,2.4,0,0-40.13,35.64-115.01,16.47-74.88-19.17-102.13-.3-114.11,5.39Z"/><g class="o"><polygon class="r" points="143.27 7.81 97.5 64.33 108.01 63.72 142.64 20.13 189.63 77.32 197.97 77.32 143.27 7.81"/><g><polygon class="s" points="98.12 23.71 98.12 9.23 89.88 5.54 78.24 9.23 78.24 30.24 98.12 23.71"/><polygon class="l" points="97.27 77.1 143.27 19.74 197.8 86.75 205.18 86.75 143.27 7.81 71.43 28.82 34.51 76.53 97.27 77.1"/><polygon class="m" points="136.46 43.45 143.13 43.87 143.13 51.97 136.46 51.97 136.46 43.45"/><polygon class="q" points="145.4 43.73 152.08 44.16 152.08 52.25 145.4 52.25 145.4 43.73"/><polygon class="p" points="136.46 53.1 143.13 53.53 143.13 61.62 136.46 61.62 136.46 53.1"/><polygon class="u" points="145.4 53.39 152.08 53.81 152.08 61.91 145.4 61.91 145.4 53.39"/></g></g></g></svg>